<svg width="56" height="56" viewBox="0 0 56 56" fill="none" xmlns="http://www.w3.org/2000/svg">
<path d="M30.8784 0C34.0283 0.0083998 35.627 0.0251994 37.0073 0.0643985L37.5505 0.083998C38.1777 0.106397 38.7964 0.134397 39.544 0.167996C42.523 0.307993 44.5557 0.778382 46.3392 1.46997C48.1871 2.18115 49.7439 3.14433 51.3006 4.69829C52.7243 6.09797 53.8259 7.79107 54.5288 9.65977C55.2204 11.4433 55.6908 13.4761 55.8308 16.458C55.8644 17.2028 55.8924 17.8216 55.9148 18.4516L55.9316 18.9948C55.9736 20.3723 55.9904 21.9711 55.996 25.121L55.9988 27.2098V30.8777C56.0056 32.92 55.9842 34.9622 55.9344 37.0039L55.9176 37.5471C55.8952 38.1771 55.8672 38.7959 55.8336 39.5407C55.6936 42.5226 55.2176 44.5526 54.5288 46.3389C53.828 48.2086 52.7261 49.9022 51.3006 51.3004C49.9006 52.7237 48.2076 53.8253 46.3392 54.5287C44.5557 55.2203 42.523 55.6907 39.544 55.8307C38.8796 55.862 38.2151 55.89 37.5505 55.9147L37.0073 55.9315C35.627 55.9707 34.0283 55.9903 30.8784 55.9959L28.7897 55.9987H25.1247C23.0816 56.0057 21.0384 55.9843 18.9958 55.9343L18.4527 55.9175C17.788 55.8923 17.1235 55.8634 16.4592 55.8307C13.4801 55.6907 11.4474 55.2203 9.66112 54.5287C7.79269 53.827 6.10031 52.7251 4.70257 51.3004C3.27757 49.9012 2.17493 48.208 1.47154 46.3389C0.779976 44.5554 0.3096 42.5226 0.169607 39.5407C0.138413 38.8763 0.110414 38.2118 0.0856111 37.5471L0.0716122 37.0039C0.0200166 34.9623 -0.00331807 32.92 0.00161552 30.8777V25.121C-0.00619879 23.0787 0.0143357 21.0365 0.0632126 18.9948L0.0828115 18.4516C0.10521 17.8216 0.133209 17.2028 0.166807 16.458C0.3068 13.4761 0.777176 11.4461 1.46874 9.65977C2.17182 7.78915 3.27666 6.09552 4.70537 4.69829C6.10276 3.27445 7.79402 2.17271 9.66112 1.46997C11.4474 0.778382 13.4773 0.307993 16.4592 0.167996C17.2039 0.134397 17.8255 0.106397 18.4527 0.083998L18.9958 0.0671982C21.0375 0.0174512 23.0797 -0.00401706 25.1219 0.00279973L30.8784 0ZM28.0002 13.9997C24.2873 13.9997 20.7266 15.4746 18.1012 18.1001C15.4758 20.7255 14.0009 24.2864 14.0009 27.9993C14.0009 31.7123 15.4758 35.2732 18.1012 37.8986C20.7266 40.5241 24.2873 41.999 28.0002 41.999C31.713 41.999 35.2738 40.5241 37.8992 37.8986C40.5245 35.2732 41.9995 31.7123 41.9995 27.9993C41.9995 24.2864 40.5245 20.7255 37.8992 18.1001C35.2738 15.4746 31.713 13.9997 28.0002 13.9997ZM28.0002 19.5995C29.1032 19.5994 30.1955 19.8164 31.2147 20.2384C32.2338 20.6604 33.1599 21.2789 33.94 22.0588C34.7201 22.8387 35.3389 23.7645 35.7612 24.7836C36.1835 25.8026 36.401 26.8949 36.4012 27.9979C36.4013 29.101 36.1843 30.1933 35.7623 31.2125C35.3404 32.2317 34.7218 33.1578 33.942 33.9379C33.1621 34.718 32.2363 35.3369 31.2173 35.7592C30.1982 36.1815 29.106 36.399 28.003 36.3992C25.7753 36.3992 23.6388 35.5142 22.0636 33.9389C20.4884 32.3636 19.6034 30.2271 19.6034 27.9993C19.6034 25.7716 20.4884 23.6351 22.0636 22.0598C23.6388 20.4845 25.7753 19.5995 28.003 19.5995M42.7022 9.79977C41.774 9.79977 40.8838 10.1685 40.2275 10.8249C39.5711 11.4812 39.2024 12.3715 39.2024 13.2997C39.2024 14.2279 39.5711 15.1181 40.2275 15.7745C40.8838 16.4309 41.774 16.7996 42.7022 16.7996C43.6304 16.7996 44.5206 16.4309 45.177 15.7745C45.8333 15.1181 46.2021 14.2279 46.2021 13.2997C46.2021 12.3715 45.8333 11.4812 45.177 10.8249C44.5206 10.1685 43.6304 9.79977 42.7022 9.79977Z" fill="#F4F6EF"/>
</svg>
