<svg width="57" height="57" viewBox="0 0 57 57" fill="none" xmlns="http://www.w3.org/2000/svg">
<path fill-rule="evenodd" clip-rule="evenodd" d="M46.7214 0.939453C49.1967 0.939453 51.5707 1.92278 53.321 3.67312C55.0714 5.42346 56.0547 7.79743 56.0547 10.2728V47.6061C56.0547 50.0815 55.0714 52.4554 53.321 54.2058C51.5707 55.9561 49.1967 56.9395 46.7214 56.9395H9.38802C6.91267 56.9395 4.5387 55.9561 2.78836 54.2058C1.03802 52.4554 0.0546875 50.0815 0.0546875 47.6061V10.2728C0.0546875 7.79743 1.03802 5.42346 2.78836 3.67312C4.5387 1.92278 6.91267 0.939453 9.38802 0.939453H46.7214ZM15.6102 22.7172C14.7851 22.7172 13.9938 23.045 13.4104 23.6285C12.8269 24.2119 12.4991 25.0032 12.4991 25.8283V41.3839C12.4991 42.209 12.8269 43.0003 13.4104 43.5838C13.9938 44.1672 14.7851 44.495 15.6102 44.495C16.4354 44.495 17.2267 44.1672 17.8101 43.5838C18.3936 43.0003 18.7214 42.209 18.7214 41.3839V25.8283C18.7214 25.0032 18.3936 24.2119 17.8101 23.6285C17.2267 23.045 16.4354 22.7172 15.6102 22.7172ZM24.9436 19.6061C24.1185 19.6061 23.3271 19.9339 22.7437 20.5173C22.1602 21.1008 21.8325 21.8921 21.8325 22.7172V41.3839C21.8325 42.209 22.1602 43.0003 22.7437 43.5838C23.3271 44.1672 24.1185 44.495 24.9436 44.495C25.7687 44.495 26.56 44.1672 27.1435 43.5838C27.7269 43.0003 28.0547 42.209 28.0547 41.3839V29.9972C29.0036 28.927 30.6058 27.6701 32.3885 26.9079C33.4245 26.4661 34.9831 26.2857 36.0658 26.6279C36.425 26.719 36.7448 26.9243 36.9774 27.2128C37.1391 27.4306 37.388 27.9159 37.388 28.9395V41.3839C37.388 42.209 37.7158 43.0003 38.2992 43.5838C38.8827 44.1672 39.674 44.495 40.4991 44.495C41.3243 44.495 42.1156 44.1672 42.699 43.5838C43.2825 43.0003 43.6102 42.209 43.6102 41.3839V28.9395C43.6102 26.855 43.0814 25.0008 41.98 23.5137C40.9666 22.1652 39.5482 21.1764 37.9325 20.6919C35.1262 19.8115 32.0182 20.2999 29.9431 21.1897C29.2783 21.4742 28.631 21.7984 28.0049 22.1603C27.8745 21.4435 27.4966 20.7952 26.9372 20.3284C26.3777 19.8616 25.6722 19.606 24.9436 19.6061ZM15.6102 13.3839C14.7851 13.3839 13.9938 13.7117 13.4104 14.2951C12.8269 14.8786 12.4991 15.6699 12.4991 16.495C12.4991 17.3201 12.8269 18.1114 13.4104 18.6949C13.9938 19.2783 14.7851 19.6061 15.6102 19.6061C16.4354 19.6061 17.2267 19.2783 17.8101 18.6949C18.3936 18.1114 18.7214 17.3201 18.7214 16.495C18.7214 15.6699 18.3936 14.8786 17.8101 14.2951C17.2267 13.7117 16.4354 13.3839 15.6102 13.3839Z" fill="#F4F6EF"/>
</svg>
