<?xml version="1.0" encoding="utf-8"?>
<!-- Generator: Adobe Illustrator 16.0.0, SVG Export Plug-In . SVG Version: 6.00 Build 0)  -->
<!DOCTYPE svg PUBLIC "-//W3C//DTD SVG 1.1//EN" "http://www.w3.org/Graphics/SVG/1.1/DTD/svg11.dtd">
<svg version="1.1" xmlns="http://www.w3.org/2000/svg" xmlns:xlink="http://www.w3.org/1999/xlink" x="0px" y="0px"
	 width="1912.104px" height="592.926px" viewBox="0 0 1912.104 592.926" enable-background="new 0 0 1912.104 592.926"
	 xml:space="preserve">
<g id="Capa_1">
</g>
<g id="Capa_2">
</g>
<g id="Capa_3">
</g>
<g id="Capa_4">
	<g>
		<path fill="none" d="M471.063,353.765l-7.509-6.103L471.063,353.765c7.809-18.826,12.148-39.41,12.148-61
			c0-28.034-7.266-54.395-20.037-77.371l-5.324,0.174l5.324-0.174c-27.01-48.609-78.684-82.016-138.463-84.015l2.913,5.75
			l-2.913-5.75c-1.886-0.063-3.768-0.141-5.667-0.141c-62.1,0-116.135,33.937-144.03,83.981l3.06,0.349l-3.06-0.349
			c-12.83,23.019-20.137,49.441-20.137,77.546c0,21.66,4.363,42.307,12.221,61.182l7.49-6.284l-7.49,6.284
			c24.514,58.865,83.295,100.345,151.946,100.345C387.767,454.291,446.594,412.726,471.063,353.765z"/>
		<path fill="#79A182" d="M324.712,131.378c59.779,1.999,111.453,35.405,138.463,84.015l32.619-1.076l17.25-22.478
			C477.177,123.043,405.835,75.74,323.252,74.176l-12.787,29.091L324.712,131.378z"/>
		<path fill="#4B6954" d="M463.175,215.393c12.771,22.977,20.037,49.337,20.037,77.371c0,21.59-4.34,42.174-12.148,61l21.949,17.843
			l32.459-6.61c7.915-22.619,12.268-46.911,12.268-72.233c0-36.416-8.949-70.723-24.695-100.925l-17.25,22.478L463.175,215.393z"/>
		<path fill="#4B6954" d="M175.015,215.218c27.896-50.044,81.931-83.981,144.03-83.981c1.899,0,3.781,0.078,5.667,0.141
			l-14.247-28.112l12.787-29.091c-1.403-0.027-2.794-0.106-4.207-0.106c-83.411,0-155.896,46.71-192.778,115.389l14.092,21.801
			L175.015,215.218z"/>
		<path fill="#79A182" d="M167.099,353.946c-7.857-18.875-12.221-39.522-12.221-61.182c0-28.105,7.307-54.527,20.137-77.546
			l-34.656-3.959l-14.092-21.801c-16.525,30.769-25.916,65.938-25.916,103.306c0,25.68,4.466,50.309,12.594,73.2l32.564,6.103
			L167.099,353.946z"/>
		<g>
			<path fill="#7B2D74" d="M626.516,454.291h-144.35c-38.881,35.501-90.614,57.161-147.413,57.161h291.763l18.391-28.58
				L626.516,454.291z"/>
			<rect x="321.517" y="454.291" fill="#7B2D74" width="205.99" height="57.161"/>
		</g>
		<path fill="#7B2D74" d="M167.099,353.946l-21.59,18.12l-32.564-6.103c12.129,34.141,32.469,64.388,58.688,88.327h147.413
			C250.394,454.291,191.612,412.812,167.099,353.946z"/>
		<path fill="#79A182" d="M493.013,371.607l-21.949-17.843c-24.47,58.961-83.297,100.526-152.019,100.526H171.632H27.282
			l19.299,28.581l-19.299,28.58h291.763c56.799,0,108.532-21.66,147.413-57.161c26.465-24.164,46.928-54.759,59.014-89.294
			L493.013,371.607z"/>
		<circle fill="none" cx="317.413" cy="292.964" r="182.141"/>
		<text transform="matrix(-0.2973 -0.9548 0.9548 -0.2973 146.1465 355.627)"><tspan x="0" y="0" fill="#FFFFFF" font-family="'MyriadPro-Regular'" font-size="29.4555">A</tspan><tspan x="17.638" y="0.084" fill="#FFFFFF" font-family="'MyriadPro-Regular'" font-size="29.4555" rotate="4.779">c</tspan><tspan x="30.414" y="1.108" fill="#FFFFFF" font-family="'MyriadPro-Regular'" font-size="29.4555" rotate="9.061">e</tspan><tspan x="44.576" y="3.306" fill="#FFFFFF" font-family="'MyriadPro-Regular'" font-size="29.4555" rotate="13.906">p</tspan><tspan x="60.492" y="7.363" fill="#FFFFFF" font-family="'MyriadPro-Regular'" font-size="29.4555" rotate="18.001">t</tspan><tspan x="69.487" y="10.199" fill="#FFFFFF" font-family="'MyriadPro-Regular'" font-size="29.4555" rotate="21.693">a</tspan><tspan x="82.327" y="15.313" fill="#FFFFFF" font-family="'MyriadPro-Regular'" font-size="29.4555" rotate="25.905">c</tspan><tspan x="93.941" y="21.041" fill="#FFFFFF" font-family="'MyriadPro-Regular'" font-size="29.4555" rotate="28.992">i</tspan><tspan x="99.761" y="24.093" fill="#FFFFFF" font-family="'MyriadPro-Regular'" font-size="29.4555" rotate="32.498">ó</tspan><tspan x="113.054" y="32.536" fill="#FFFFFF" font-family="'MyriadPro-Regular'" font-size="29.4555" rotate="37.395">n</tspan></text>
		<circle fill="none" cx="317.411" cy="292.964" r="182.141"/>
		<text transform="matrix(0.5718 -0.8204 0.8204 0.5718 163.1758 195.7334)"><tspan x="0" y="0" fill="#FFFFFF" font-family="'MyriadPro-Regular'" font-size="29.4555">C</tspan><tspan x="16.645" y="0.001" fill="#FFFFFF" font-family="'MyriadPro-Regular'" font-size="29.4555" rotate="5.069">o</tspan><tspan x="32.325" y="1.37" fill="#FFFFFF" font-family="'MyriadPro-Regular'" font-size="29.4555" rotate="10.042">n</tspan><tspan x="48.057" y="4.23" fill="#FFFFFF" font-family="'MyriadPro-Regular'" font-size="29.4555" rotate="14.348">s</tspan><tspan x="59.08" y="7.069" fill="#FFFFFF" font-family="'MyriadPro-Regular'" font-size="29.4555" rotate="17.645">t</tspan><tspan x="68.123" y="9.941" fill="#FFFFFF" font-family="'MyriadPro-Regular'" font-size="29.4555" rotate="20.633">r</tspan><tspan x="76.855" y="13.093" fill="#FFFFFF" font-family="'MyriadPro-Regular'" font-size="29.4555" rotate="24.618">u</tspan><tspan x="91.237" y="19.731" fill="#FFFFFF" font-family="'MyriadPro-Regular'" font-size="29.4555" rotate="29.15">c</tspan><tspan x="102.459" y="25.979" fill="#FFFFFF" font-family="'MyriadPro-Regular'" font-size="29.4555" rotate="33.195">c</tspan><tspan x="113.256" y="33.136" fill="#FFFFFF" font-family="'MyriadPro-Regular'" font-size="29.4555" rotate="36.26">i</tspan><tspan x="118.677" y="36.771" fill="#FFFFFF" font-family="'MyriadPro-Regular'" font-size="29.4555" rotate="40.589">ó</tspan><tspan x="130.774" y="46.951" fill="#FFFFFF" font-family="'MyriadPro-Regular'" font-size="29.4555" rotate="44.644">n</tspan></text>
		<path fill="none" d="M426.784,438.61c-80.44,60.404-194.617,44.164-255.021-36.275c-60.405-80.439-44.161-194.617,36.28-255.02
			c80.44-60.404,194.615-44.161,255.017,36.279C523.467,264.033,507.223,378.208,426.784,438.61z"/>
		<text transform="matrix(-0.4998 0.8662 -0.8662 -0.4998 479.0723 377.3242)"><tspan x="0" y="0" fill="#FFFFFF" font-family="'MyriadPro-Regular'" font-size="29.4555">P</tspan><tspan x="15.371" y="0.124" fill="#FFFFFF" font-family="'MyriadPro-Regular'" font-size="29.4555" rotate="3.488">l</tspan><tspan x="22.042" y="0.418" fill="#FFFFFF" font-family="'MyriadPro-Regular'" font-size="29.4555" rotate="6.752">a</tspan><tspan x="35.747" y="1.979" fill="#FFFFFF" font-family="'MyriadPro-Regular'" font-size="29.4555" rotate="11.458">n</tspan></text>
		<path fill="none" d="M491.269,347.269c-29.994,96.02-132.146,149.545-228.166,119.553
			c-96.02-29.994-149.541-132.148-119.545-228.167C173.55,142.635,275.702,89.111,371.72,119.107
			C467.739,149.099,521.261,251.253,491.269,347.269z"/>
		<text transform="matrix(0.1757 0.9844 -0.9844 0.1757 495.0078 251.4336)"><tspan x="0" y="0" fill="#FFFFFF" font-family="'MyriadPro-Regular'" font-size="29.4555">D</tspan><tspan x="19.278" y="0.216" fill="#FFFFFF" font-family="'MyriadPro-Regular'" font-size="29.4555" rotate="4.082">i</tspan><tspan x="25.907" y="0.621" fill="#FFFFFF" font-family="'MyriadPro-Regular'" font-size="29.4555" rotate="6.94">s</tspan><tspan x="37.145" y="1.921" fill="#FFFFFF" font-family="'MyriadPro-Regular'" font-size="29.4555" rotate="11.014">e</tspan><tspan x="51.223" y="4.611" fill="#FFFFFF" font-family="'MyriadPro-Regular'" font-size="29.4555" rotate="15.804">ñ</tspan><tspan x="66.571" y="8.942" fill="#FFFFFF" font-family="'MyriadPro-Regular'" font-size="29.4555" rotate="20.801">o</tspan></text>
		<path fill="none" d="M455.6,174.304c65.533,76.322,56.789,191.317-19.53,256.852c-76.318,65.531-191.313,56.781-256.843-19.537
			c-65.535-76.32-56.79-191.313,19.531-256.844C275.078,89.24,390.071,97.988,455.6,174.304z"/>
		<text transform="matrix(0.8954 0.4453 -0.4453 0.8954 392.0498 126.5952)"><tspan x="0" y="0" fill="#FFFFFF" font-family="'MyriadPro-Regular'" font-size="29.4555">T</tspan><tspan x="14.246" y="-0.018" fill="#FFFFFF" font-family="'MyriadPro-Regular'" font-size="29.4555" rotate="4.529">e</tspan><tspan x="28.616" y="1.164" fill="#FFFFFF" font-family="'MyriadPro-Regular'" font-size="29.4555" rotate="8.61">s</tspan><tspan x="39.842" y="2.882" fill="#FFFFFF" font-family="'MyriadPro-Regular'" font-size="29.4555" rotate="11.9">t</tspan></text>
		<rect x="458.993" y="468.393" fill="none" width="157.492" height="49.498"/>
		<text transform="matrix(1 0 0 1 467.8379 488.2725)" fill="#FFFFFF" font-family="'Nunito-Regular'" font-size="28">Despliegue</text>
	</g>
	<g>
		<path fill="none" d="M1082.55,353.765l-7.508-6.103L1082.55,353.765c7.809-18.826,12.148-39.41,12.148-61
			c0-28.034-7.266-54.395-20.037-77.371l-5.324,0.174l5.324-0.174c-27.01-48.609-78.684-82.016-138.463-84.015l2.914,5.75
			l-2.914-5.75c-1.885-0.063-3.768-0.141-5.666-0.141c-62.1,0-116.135,33.937-144.031,83.981l3.061,0.349l-3.061-0.349
			c-12.83,23.019-20.137,49.441-20.137,77.546c0,21.66,4.363,42.307,12.221,61.182l7.49-6.284l-7.49,6.284
			c24.514,58.865,83.295,100.345,151.947,100.345C999.253,454.291,1058.081,412.726,1082.55,353.765z"/>
		<path fill="#79A182" d="M936.198,131.378c59.779,1.999,111.453,35.405,138.463,84.015l32.619-1.076l17.25-22.478
			c-35.867-68.796-107.209-116.099-189.791-117.663l-12.787,29.091L936.198,131.378z"/>
		<path fill="#4B6954" d="M1074.661,215.393c12.771,22.977,20.037,49.337,20.037,77.371c0,21.59-4.34,42.174-12.148,61
			l21.949,17.843l32.459-6.61c7.916-22.619,12.268-46.911,12.268-72.233c0-36.416-8.949-70.723-24.695-100.925l-17.25,22.478
			L1074.661,215.393z"/>
		<path fill="#4B6954" d="M786.501,215.218c27.896-50.044,81.932-83.981,144.031-83.981c1.898,0,3.781,0.078,5.666,0.141
			l-14.246-28.112l12.787-29.091c-1.404-0.027-2.795-0.106-4.207-0.106c-83.412,0-155.896,46.71-192.779,115.389l14.092,21.801
			L786.501,215.218z"/>
		<path fill="#79A182" d="M778.585,353.946c-7.857-18.875-12.221-39.522-12.221-61.182c0-28.105,7.307-54.527,20.137-77.546
			l-34.656-3.959l-14.092-21.801c-16.525,30.769-25.916,65.938-25.916,103.306c0,25.68,4.467,50.309,12.594,73.2l32.564,6.103
			L778.585,353.946z"/>
		<g>
			<path fill="#7B2D74" d="M1238.003,454.291h-144.35c-38.881,35.501-90.615,57.161-147.414,57.161h291.764l18.391-28.58
				L1238.003,454.291z"/>
			<rect x="933.003" y="454.291" fill="#7B2D74" width="205.99" height="57.161"/>
		</g>
		<path fill="#7B2D74" d="M778.585,353.946l-21.59,18.12l-32.564-6.103c12.129,34.141,32.469,64.388,58.688,88.327h147.414
			C861.88,454.291,803.099,412.812,778.585,353.946z"/>
		<path fill="#79A182" d="M1104.499,371.607l-21.949-17.843c-24.469,58.961-83.297,100.526-152.018,100.526H783.118h-144.35
			l19.299,28.581l-19.299,28.58h291.764c56.799,0,108.531-21.66,147.412-57.161c26.465-24.164,46.928-54.759,59.014-89.294
			L1104.499,371.607z"/>
		<circle fill="none" cx="928.899" cy="292.964" r="182.141"/>
		<text transform="matrix(-0.2973 -0.9548 0.9548 -0.2973 757.6318 355.627)"><tspan x="0" y="0" fill="#FFFFFF" font-family="'MyriadPro-Regular'" font-size="29.4555">A</tspan><tspan x="17.638" y="0.084" fill="#FFFFFF" font-family="'MyriadPro-Regular'" font-size="29.4555" rotate="4.779">c</tspan><tspan x="30.414" y="1.108" fill="#FFFFFF" font-family="'MyriadPro-Regular'" font-size="29.4555" rotate="9.061">e</tspan><tspan x="44.576" y="3.307" fill="#FFFFFF" font-family="'MyriadPro-Regular'" font-size="29.4555" rotate="13.906">p</tspan><tspan x="60.492" y="7.363" fill="#FFFFFF" font-family="'MyriadPro-Regular'" font-size="29.4555" rotate="18.001">t</tspan><tspan x="69.487" y="10.2" fill="#FFFFFF" font-family="'MyriadPro-Regular'" font-size="29.4555" rotate="21.693">a</tspan><tspan x="82.327" y="15.313" fill="#FFFFFF" font-family="'MyriadPro-Regular'" font-size="29.4555" rotate="25.905">c</tspan><tspan x="93.941" y="21.041" fill="#FFFFFF" font-family="'MyriadPro-Regular'" font-size="29.4555" rotate="28.992">i</tspan><tspan x="99.761" y="24.093" fill="#FFFFFF" font-family="'MyriadPro-Regular'" font-size="29.4555" rotate="32.498">ó</tspan><tspan x="113.053" y="32.537" fill="#FFFFFF" font-family="'MyriadPro-Regular'" font-size="29.4555" rotate="37.395">n</tspan></text>
		<path fill="none" d="M880.333,117.417c96.953-26.821,197.291,30.029,224.113,126.98c26.822,96.954-30.031,197.29-126.984,224.114
			c-96.953,26.82-197.289-30.031-224.109-126.984C726.528,244.574,783.382,144.239,880.333,117.417z"/>
		<text transform="matrix(0.5718 -0.8204 0.8204 0.5718 774.6621 195.7295)"><tspan x="0" y="0" fill="#FFFFFF" font-family="'MyriadPro-Regular'" font-size="29.4555">C</tspan><tspan x="16.646" y="0.001" fill="#FFFFFF" font-family="'MyriadPro-Regular'" font-size="29.4555" rotate="5.069">o</tspan><tspan x="32.325" y="1.37" fill="#FFFFFF" font-family="'MyriadPro-Regular'" font-size="29.4555" rotate="10.042">n</tspan><tspan x="48.058" y="4.231" fill="#FFFFFF" font-family="'MyriadPro-Regular'" font-size="29.4555" rotate="14.348">s</tspan><tspan x="59.08" y="7.069" fill="#FFFFFF" font-family="'MyriadPro-Regular'" font-size="29.4555" rotate="17.645">t</tspan><tspan x="68.123" y="9.941" fill="#FFFFFF" font-family="'MyriadPro-Regular'" font-size="29.4555" rotate="20.633">r</tspan><tspan x="76.855" y="13.093" fill="#FFFFFF" font-family="'MyriadPro-Regular'" font-size="29.4555" rotate="24.618">u</tspan><tspan x="91.237" y="19.731" fill="#FFFFFF" font-family="'MyriadPro-Regular'" font-size="29.4555" rotate="29.15">c</tspan><tspan x="102.459" y="25.979" fill="#FFFFFF" font-family="'MyriadPro-Regular'" font-size="29.4555" rotate="33.195">c</tspan><tspan x="113.256" y="33.136" fill="#FFFFFF" font-family="'MyriadPro-Regular'" font-size="29.4555" rotate="36.26">i</tspan><tspan x="118.677" y="36.771" fill="#FFFFFF" font-family="'MyriadPro-Regular'" font-size="29.4555" rotate="40.589">ó</tspan><tspan x="130.775" y="46.952" fill="#FFFFFF" font-family="'MyriadPro-Regular'" font-size="29.4555" rotate="44.644">n</tspan></text>
		<path fill="none" d="M1038.271,438.61c-80.439,60.404-194.617,44.164-255.02-36.275c-60.406-80.439-44.162-194.617,36.279-255.02
			c80.441-60.404,194.615-44.161,255.018,36.279C1134.954,264.033,1118.71,378.208,1038.271,438.61z"/>
		<text transform="matrix(-0.4998 0.8662 -0.8662 -0.4998 1090.5586 377.3242)"><tspan x="0" y="0" fill="#FFFFFF" font-family="'MyriadPro-Regular'" font-size="29.4555">P</tspan><tspan x="15.371" y="0.124" fill="#FFFFFF" font-family="'MyriadPro-Regular'" font-size="29.4555" rotate="3.488">l</tspan><tspan x="22.042" y="0.418" fill="#FFFFFF" font-family="'MyriadPro-Regular'" font-size="29.4555" rotate="6.752">a</tspan><tspan x="35.747" y="1.979" fill="#FFFFFF" font-family="'MyriadPro-Regular'" font-size="29.4555" rotate="11.458">n</tspan></text>
		<path fill="none" d="M1102.755,347.269c-29.994,96.02-132.146,149.545-228.166,119.553
			c-96.02-29.994-149.541-132.148-119.545-228.167c29.992-96.019,132.145-149.542,228.162-119.547
			C1079.226,149.099,1132.747,251.253,1102.755,347.269z"/>
		<text transform="matrix(0.1757 0.9844 -0.9844 0.1757 1106.4941 251.4336)"><tspan x="0" y="0" fill="#FFFFFF" font-family="'MyriadPro-Regular'" font-size="29.4555">D</tspan><tspan x="19.278" y="0.215" fill="#FFFFFF" font-family="'MyriadPro-Regular'" font-size="29.4555" rotate="4.082">i</tspan><tspan x="25.907" y="0.621" fill="#FFFFFF" font-family="'MyriadPro-Regular'" font-size="29.4555" rotate="6.94">s</tspan><tspan x="37.145" y="1.921" fill="#FFFFFF" font-family="'MyriadPro-Regular'" font-size="29.4555" rotate="11.014">e</tspan><tspan x="51.224" y="4.61" fill="#FFFFFF" font-family="'MyriadPro-Regular'" font-size="29.4555" rotate="15.804">ñ</tspan><tspan x="66.571" y="8.942" fill="#FFFFFF" font-family="'MyriadPro-Regular'" font-size="29.4555" rotate="20.801">o</tspan></text>
		<path fill="none" d="M1067.087,174.304c65.533,76.322,56.789,191.317-19.531,256.852
			c-76.318,65.531-191.313,56.781-256.842-19.537c-65.535-76.32-56.791-191.313,19.531-256.844
			C886.565,89.24,1001.558,97.988,1067.087,174.304z"/>
		<text transform="matrix(0.8954 0.4453 -0.4453 0.8954 1003.5361 126.5952)"><tspan x="0" y="0" fill="#FFFFFF" font-family="'MyriadPro-Regular'" font-size="29.4555">T</tspan><tspan x="14.246" y="-0.018" fill="#FFFFFF" font-family="'MyriadPro-Regular'" font-size="29.4555" rotate="4.529">e</tspan><tspan x="28.616" y="1.164" fill="#FFFFFF" font-family="'MyriadPro-Regular'" font-size="29.4555" rotate="8.61">s</tspan><tspan x="39.842" y="2.882" fill="#FFFFFF" font-family="'MyriadPro-Regular'" font-size="29.4555" rotate="11.9">t</tspan></text>
		<rect x="1070.479" y="468.393" fill="none" width="157.492" height="49.498"/>
		<text transform="matrix(1 0 0 1 1079.3242 488.2725)" fill="#FFFFFF" font-family="'Nunito-Regular'" font-size="28">Despliegue</text>
	</g>
	<g>
		<path fill="none" d="M1694.037,353.765l-7.509-6.103L1694.037,353.765c7.809-18.826,12.148-39.41,12.148-61
			c0-28.034-7.266-54.395-20.037-77.371l-5.324,0.174l5.324-0.174c-27.01-48.609-78.684-82.016-138.463-84.015l2.913,5.75
			l-2.913-5.75c-1.886-0.063-3.768-0.141-5.667-0.141c-62.1,0-116.135,33.937-144.03,83.981l3.06,0.349l-3.06-0.349
			c-12.83,23.019-20.137,49.441-20.137,77.546c0,21.66,4.363,42.307,12.221,61.182l7.49-6.284l-7.49,6.284
			c24.514,58.865,83.295,100.345,151.946,100.345C1610.74,454.291,1669.567,412.726,1694.037,353.765z"/>
		<path fill="#79A182" d="M1547.686,131.378c59.779,1.999,111.453,35.405,138.463,84.015l32.619-1.076l17.25-22.478
			c-35.867-68.796-107.209-116.099-189.792-117.663l-12.787,29.091L1547.686,131.378z"/>
		<path fill="#4B6954" d="M1686.148,215.393c12.771,22.977,20.037,49.337,20.037,77.371c0,21.59-4.34,42.174-12.148,61
			l21.949,17.843l32.459-6.61c7.915-22.619,12.268-46.911,12.268-72.233c0-36.416-8.949-70.723-24.695-100.925l-17.25,22.478
			L1686.148,215.393z"/>
		<path fill="#4B6954" d="M1397.988,215.218c27.896-50.044,81.931-83.981,144.03-83.981c1.899,0,3.781,0.078,5.667,0.141
			l-14.247-28.112l12.787-29.091c-1.403-0.027-2.794-0.106-4.207-0.106c-83.411,0-155.896,46.71-192.778,115.389l14.092,21.801
			L1397.988,215.218z"/>
		<path fill="#79A182" d="M1390.072,353.946c-7.857-18.875-12.221-39.522-12.221-61.182c0-28.105,7.307-54.527,20.137-77.546
			l-34.656-3.959l-14.092-21.801c-16.525,30.769-25.916,65.938-25.916,103.306c0,25.68,4.466,50.309,12.594,73.2l32.564,6.103
			L1390.072,353.946z"/>
		<g>
			<path fill="#7B2D74" d="M1849.489,454.291h-144.35c-38.881,35.501-90.614,57.161-147.413,57.161h291.763l18.391-28.58
				L1849.489,454.291z"/>
			<rect x="1544.49" y="454.291" fill="#7B2D74" width="205.99" height="57.161"/>
		</g>
		<path fill="#7B2D74" d="M1390.072,353.946l-21.59,18.12l-32.564-6.103c12.129,34.141,32.469,64.388,58.688,88.327h147.413
			C1473.367,454.291,1414.586,412.812,1390.072,353.946z"/>
		<path fill="#79A182" d="M1715.986,371.607l-21.949-17.843c-24.47,58.961-83.297,100.526-152.019,100.526h-147.413h-144.35
			l19.299,28.581l-19.299,28.58h291.763c56.799,0,108.532-21.66,147.413-57.161c26.465-24.164,46.928-54.759,59.014-89.294
			L1715.986,371.607z"/>
		<circle fill="none" cx="1540.386" cy="292.964" r="182.141"/>
		<text transform="matrix(-0.2973 -0.9548 0.9548 -0.2973 1369.1201 355.6309)"><tspan x="0" y="0" fill="#FFFFFF" font-family="'MyriadPro-Regular'" font-size="29.4555">A</tspan><tspan x="17.638" y="0.084" fill="#FFFFFF" font-family="'MyriadPro-Regular'" font-size="29.4555" rotate="4.779">c</tspan><tspan x="30.414" y="1.109" fill="#FFFFFF" font-family="'MyriadPro-Regular'" font-size="29.4555" rotate="9.061">e</tspan><tspan x="44.576" y="3.307" fill="#FFFFFF" font-family="'MyriadPro-Regular'" font-size="29.4555" rotate="13.906">p</tspan><tspan x="60.492" y="7.364" fill="#FFFFFF" font-family="'MyriadPro-Regular'" font-size="29.4555" rotate="18.001">t</tspan><tspan x="69.487" y="10.2" fill="#FFFFFF" font-family="'MyriadPro-Regular'" font-size="29.4555" rotate="21.693">a</tspan><tspan x="82.326" y="15.313" fill="#FFFFFF" font-family="'MyriadPro-Regular'" font-size="29.4555" rotate="25.905">c</tspan><tspan x="93.941" y="21.041" fill="#FFFFFF" font-family="'MyriadPro-Regular'" font-size="29.4555" rotate="28.992">i</tspan><tspan x="99.761" y="24.093" fill="#FFFFFF" font-family="'MyriadPro-Regular'" font-size="29.4555" rotate="32.498">ó</tspan><tspan x="113.053" y="32.537" fill="#FFFFFF" font-family="'MyriadPro-Regular'" font-size="29.4555" rotate="37.395">n</tspan></text>
		<circle fill="none" cx="1540.385" cy="292.964" r="182.141"/>
		<text transform="matrix(0.5718 -0.8204 0.8204 0.5718 1386.1484 195.7334)"><tspan x="0" y="0" fill="#FFFFFF" font-family="'MyriadPro-Regular'" font-size="29.4555">C</tspan><tspan x="16.646" y="0.001" fill="#FFFFFF" font-family="'MyriadPro-Regular'" font-size="29.4555" rotate="5.069">o</tspan><tspan x="32.325" y="1.37" fill="#FFFFFF" font-family="'MyriadPro-Regular'" font-size="29.4555" rotate="10.042">n</tspan><tspan x="48.058" y="4.231" fill="#FFFFFF" font-family="'MyriadPro-Regular'" font-size="29.4555" rotate="14.348">s</tspan><tspan x="59.08" y="7.07" fill="#FFFFFF" font-family="'MyriadPro-Regular'" font-size="29.4555" rotate="17.645">t</tspan><tspan x="68.124" y="9.941" fill="#FFFFFF" font-family="'MyriadPro-Regular'" font-size="29.4555" rotate="20.633">r</tspan><tspan x="76.855" y="13.093" fill="#FFFFFF" font-family="'MyriadPro-Regular'" font-size="29.4555" rotate="24.618">u</tspan><tspan x="91.238" y="19.732" fill="#FFFFFF" font-family="'MyriadPro-Regular'" font-size="29.4555" rotate="29.15">c</tspan><tspan x="102.459" y="25.979" fill="#FFFFFF" font-family="'MyriadPro-Regular'" font-size="29.4555" rotate="33.195">c</tspan><tspan x="113.256" y="33.136" fill="#FFFFFF" font-family="'MyriadPro-Regular'" font-size="29.4555" rotate="36.26">i</tspan><tspan x="118.677" y="36.771" fill="#FFFFFF" font-family="'MyriadPro-Regular'" font-size="29.4555" rotate="40.589">ó</tspan><tspan x="130.775" y="46.952" fill="#FFFFFF" font-family="'MyriadPro-Regular'" font-size="29.4555" rotate="44.644">n</tspan></text>
		<path fill="none" d="M1649.758,438.61c-80.44,60.404-194.617,44.164-255.021-36.275c-60.405-80.439-44.161-194.617,36.28-255.02
			c80.44-60.404,194.615-44.161,255.017,36.279C1746.44,264.033,1730.196,378.208,1649.758,438.61z"/>
		<text transform="matrix(-0.4998 0.8662 -0.8662 -0.4998 1702.0469 377.3242)"><tspan x="0" y="0" fill="#FFFFFF" font-family="'MyriadPro-Regular'" font-size="29.4555">P</tspan><tspan x="15.371" y="0.125" fill="#FFFFFF" font-family="'MyriadPro-Regular'" font-size="29.4555" rotate="3.488">l</tspan><tspan x="22.042" y="0.419" fill="#FFFFFF" font-family="'MyriadPro-Regular'" font-size="29.4555" rotate="6.752">a</tspan><tspan x="35.747" y="1.98" fill="#FFFFFF" font-family="'MyriadPro-Regular'" font-size="29.4555" rotate="11.458">n</tspan></text>
		<path fill="none" d="M1714.242,347.269c-29.994,96.02-132.146,149.545-228.166,119.553
			c-96.02-29.994-149.541-132.148-119.545-228.167c29.992-96.019,132.145-149.542,228.162-119.547
			C1690.713,149.099,1744.234,251.253,1714.242,347.269z"/>
		<text transform="matrix(0.1757 0.9844 -0.9844 0.1757 1717.9805 251.4336)"><tspan x="0" y="0" fill="#FFFFFF" font-family="'MyriadPro-Regular'" font-size="29.4555">D</tspan><tspan x="19.278" y="0.214" fill="#FFFFFF" font-family="'MyriadPro-Regular'" font-size="29.4555" rotate="4.082">i</tspan><tspan x="25.907" y="0.621" fill="#FFFFFF" font-family="'MyriadPro-Regular'" font-size="29.4555" rotate="6.94">s</tspan><tspan x="37.145" y="1.921" fill="#FFFFFF" font-family="'MyriadPro-Regular'" font-size="29.4555" rotate="11.014">e</tspan><tspan x="51.224" y="4.609" fill="#FFFFFF" font-family="'MyriadPro-Regular'" font-size="29.4555" rotate="15.804">ñ</tspan><tspan x="66.571" y="8.942" fill="#FFFFFF" font-family="'MyriadPro-Regular'" font-size="29.4555" rotate="20.801">o</tspan></text>
		<path fill="none" d="M1678.573,174.304c65.533,76.322,56.789,191.317-19.53,256.852c-76.318,65.531-191.313,56.781-256.843-19.537
			c-65.535-76.32-56.79-191.313,19.531-256.844C1498.052,89.24,1613.045,97.988,1678.573,174.304z"/>
		<text transform="matrix(0.8954 0.4453 -0.4453 0.8954 1615.0234 126.5952)"><tspan x="0" y="0" fill="#FFFFFF" font-family="'MyriadPro-Regular'" font-size="29.4555">T</tspan><tspan x="14.246" y="-0.018" fill="#FFFFFF" font-family="'MyriadPro-Regular'" font-size="29.4555" rotate="4.529">e</tspan><tspan x="28.616" y="1.164" fill="#FFFFFF" font-family="'MyriadPro-Regular'" font-size="29.4555" rotate="8.61">s</tspan><tspan x="39.842" y="2.882" fill="#FFFFFF" font-family="'MyriadPro-Regular'" font-size="29.4555" rotate="11.9">t</tspan></text>
		<rect x="1681.967" y="468.393" fill="none" width="157.492" height="49.498"/>
		<text transform="matrix(1 0 0 1 1690.8115 488.2725)" fill="#FFFFFF" font-family="'Nunito-Regular'" font-size="28">Despliegue</text>
	</g>
</g>
<g id="Capa_5">
</g>
</svg>
