<svg width="719" height="270" viewBox="0 0 719 270" fill="none" xmlns="http://www.w3.org/2000/svg">
<path d="M446.667 81C446.667 83.9456 449.054 86.3334 452 86.3334C454.946 86.3334 457.333 83.9456 457.333 81C457.333 78.0545 454.946 75.6667 452 75.6667C449.054 75.6667 446.667 78.0545 446.667 81ZM243.057 117L243.057 118L243.403 118L243.676 117.785L243.057 117ZM288.744 81.0003L288.744 80.0003L288.397 80.0003L288.125 80.2148L288.744 81.0003ZM-3.15617e-06 118L243.057 118L243.057 116L-3.13827e-06 116L-3.15617e-06 118ZM243.676 117.785L289.363 81.7857L288.125 80.2148L242.438 116.215L243.676 117.785ZM288.744 82.0003L452 82L452 80L288.744 80.0003L288.744 82.0003Z" fill="#F4F6EF"/>
<path d="M303.667 6.00003C303.667 8.94554 306.054 11.3334 309 11.3334C311.946 11.3334 314.333 8.94555 314.333 6.00003C314.333 3.05451 311.946 0.666693 309 0.666693C306.054 0.666693 303.667 3.05451 303.667 6.00003ZM213.923 79.9999L213.923 80.9999L214.266 80.9999L214.537 80.789L213.923 79.9999ZM-6.26471e-06 81L213.923 80.9999L213.923 78.9999L-6.94792e-06 79L-6.26471e-06 81ZM214.537 80.789L309.614 6.78917L308.386 5.21088L213.309 79.2107L214.537 80.789Z" fill="#F4F6EF"/>
<path d="M637.667 191.021C637.683 193.967 640.085 196.345 643.03 196.333C645.976 196.322 648.35 193.924 648.333 190.979C648.317 188.033 645.915 185.655 642.97 185.667C640.024 185.678 637.65 188.076 637.667 191.021ZM0.00172019 192L643.002 192L642.998 190L-0.00172019 190L0.00172019 192Z" fill="#F4F6EF"/>
<path d="M708.167 224C708.167 226.946 710.554 229.333 713.5 229.333C716.446 229.333 718.833 226.946 718.833 224C718.833 221.055 716.446 218.667 713.5 218.667C710.554 218.667 708.167 221.055 708.167 224ZM313 225L713.5 225L713.5 223L313 223L313 225Z" fill="#F4F6EF"/>
<path d="M584.167 154C584.167 156.946 586.554 159.333 589.5 159.333C592.446 159.333 594.833 156.946 594.833 154C594.833 151.054 592.446 148.667 589.5 148.667C586.554 148.667 584.167 151.054 584.167 154ZM341 155L589.5 155L589.5 153L341 153L341 155Z" fill="#F4F6EF"/>
<path d="M594.667 264C594.667 261.054 597.055 258.667 600 258.667C602.945 258.667 605.333 261.054 605.333 264C605.333 266.945 602.945 269.333 600 269.333C597.055 269.333 594.667 266.945 594.667 264ZM243.266 224L243.266 223L243.658 223L243.945 223.265L243.266 224ZM286.555 264L286.555 265L286.163 265L285.876 264.734L286.555 264ZM-2.9973e-06 223L243.266 223L243.266 225L-3.00408e-06 225L-2.9973e-06 223ZM243.945 223.265L287.233 263.265L285.876 264.734L242.588 224.734L243.945 223.265ZM286.555 263L600 263L600 265L286.555 265L286.555 263Z" fill="#F4F6EF"/>
<path d="M541.667 117C541.667 119.946 544.055 122.333 547 122.333C549.945 122.333 552.333 119.946 552.333 117C552.333 114.054 549.945 111.667 547 111.667C544.055 111.667 541.667 114.054 541.667 117ZM282.952 154V155H283.31L283.586 154.773L282.952 154ZM328.078 117V116H327.72L327.444 116.227L328.078 117ZM0 155H282.952V153H0L0 155ZM283.586 154.773L328.712 117.773L327.444 116.227L282.318 153.227L283.586 154.773ZM328.078 118H547V116H328.078V118Z" fill="#F4F6EF"/>
</svg>
