<svg width="153" height="170" viewBox="0 0 153 170" fill="none" xmlns="http://www.w3.org/2000/svg">
<path d="M125.536 21.4442C133.725 28.8808 128.465 42.5 117.403 42.5V42.5C110.72 42.5 105.304 37.0831 105.304 30.4011V30.4011C105.304 19.9007 117.763 14.3852 125.536 21.4442V21.4442ZM76.0526 85.6641C78.3683 85.6641 80.5317 86.0514 82.5427 86.8262C84.5537 87.6009 86.3514 88.7077 87.9359 90.1465C89.5203 91.5853 90.7086 93.2178 91.5008 95.0439C92.293 96.8701 92.7501 98.8346 92.872 100.938C92.872 103.04 92.4454 105.005 91.5922 106.831C90.7391 108.657 89.5203 110.29 87.9359 111.729C86.3514 113.167 84.5537 114.246 82.5427 114.966C80.5317 115.685 78.3683 116.1 76.0526 116.211C73.7369 116.211 71.5736 115.824 69.5626 115.049C67.5516 114.274 65.7538 113.167 64.1694 111.729C62.585 110.29 61.3967 108.657 60.6044 106.831C59.8122 105.005 59.3552 103.04 59.2333 100.938C59.2333 98.8346 59.6599 96.8701 60.513 95.0439C61.3662 93.2178 62.585 91.5853 64.1694 90.1465C65.7538 88.7077 67.5516 87.6286 69.5626 86.9092C71.5736 86.1898 73.7369 85.7747 76.0526 85.6641ZM122.854 53.125C139.009 53.125 152.105 66.2211 152.105 82.376V111.563C152.105 143.837 125.942 170 93.6678 170H60C26.8629 170 0 143.137 0 110V46.8016C0 20.9538 20.9538 0 46.8016 0H67.0407C81.7108 0 93.6032 11.8924 93.6032 26.5625V26.5625C93.6032 41.2326 105.496 53.125 120.166 53.125H122.854ZM107.771 106.404C106.495 105.928 105.745 104.62 105.852 103.262V103.262C105.913 102.487 105.944 101.712 105.944 100.938C105.944 100.163 105.913 99.388 105.852 98.6133V98.6133C105.745 97.2552 106.495 95.947 107.771 95.4709L116.397 92.2529C119.693 91.0234 121.26 87.2614 119.811 84.0561V84.0561C118.49 81.1333 115.125 79.7405 112.125 80.8744L104.758 83.6587C102.253 84.6057 99.4887 83.7976 97.5303 81.9706V81.9706C95.3034 79.8932 94.2684 76.6419 95.5373 73.8735L97.4523 69.6953C99.0268 66.2602 97.3523 62.2111 93.8115 60.8914V60.8914C90.6067 59.6969 87.0243 61.1887 85.6146 64.3048L82.2317 71.7826C81.6019 73.1747 80.1368 73.9759 78.6121 73.877V73.877C77.7589 73.8216 76.9058 73.7939 76.0526 73.7939C75.1995 73.7939 74.3463 73.8216 73.4932 73.877V73.877C71.9684 73.9759 70.5034 73.1747 69.8736 71.7826L66.4907 64.3048C65.081 61.1887 61.4986 59.6969 58.2938 60.8914V60.8914C54.753 62.2111 53.0785 66.2602 54.653 69.6953L56.568 73.8735C57.8369 76.6419 56.8018 79.8932 54.575 81.9706V81.9706C52.6165 83.7976 49.8528 84.6057 47.3474 83.6587L39.9807 80.8744C36.9805 79.7405 33.6155 81.1333 32.2944 84.0561V84.0561C30.8457 87.2614 32.4124 91.0234 35.7081 92.2529L44.3341 95.4709C45.6105 95.947 46.36 97.2552 46.2532 98.6133V98.6133C46.1922 99.388 46.1313 100.163 46.0703 100.938C46.0703 101.712 46.1008 102.487 46.1618 103.262V103.262C46.2673 104.603 45.5817 105.939 44.3208 106.409L35.7081 109.622C32.4124 110.852 30.8457 114.614 32.2944 117.819V117.819C33.6155 120.742 36.9805 122.135 39.9807 121.001L47.3474 118.216C49.8528 117.269 52.6165 118.077 54.575 119.904V119.904C56.8018 121.982 57.8369 125.233 56.568 128.001L54.653 132.18C53.0785 135.615 54.753 139.664 58.2938 140.984V140.984C61.4986 142.178 65.081 140.686 66.4907 137.57L69.8736 130.092C70.5034 128.7 71.9684 127.899 73.4932 127.998V127.998C74.3463 128.053 75.1995 128.109 76.0526 128.164C76.9058 128.164 77.7589 128.136 78.6121 128.081V128.081C80.1227 127.983 81.6121 128.723 82.2361 130.102L85.6146 137.57C87.0243 140.686 90.6067 142.178 93.8115 140.984V140.984C97.3523 139.664 99.0268 135.615 97.4523 132.18L95.5373 128.001C94.2684 125.233 95.3034 121.982 97.5303 119.904V119.904C99.4887 118.077 102.252 117.269 104.758 118.216L112.125 121.001C115.125 122.135 118.49 120.742 119.811 117.819V117.819C121.26 114.614 119.693 110.852 116.397 109.622L107.771 106.404Z" fill="#7B2D74"/>
</svg>
